<svg xmlns="http://www.w3.org/2000/svg" version="1.1" xmlns:xlink="http://www.w3.org/1999/xlink" xmlns:svgjs="http://svgjs.dev/svgjs" width="1000" height="750" viewBox="0 0 1000 750"><rect width="1000" height="750" fill="#c9efc7"></rect><g transform="matrix(0.834,0,0,0.834,82.49454545454546,115.4193570850203)"><svg viewBox="0 0 396 247" data-background-color="#c9efc7" preserveAspectRatio="xMidYMid meet" height="623" width="1000" xmlns="http://www.w3.org/2000/svg" xmlns:xlink="http://www.w3.org/1999/xlink"><g id="tight-bounds" transform="matrix(1,0,0,1,0.2400000000000091,-0.09999999999999432)"><svg viewBox="0 0 395.52 247.2" height="247.2" width="395.52"><g><svg></svg></g><g><svg viewBox="0 0 395.52 247.2" height="247.2" width="395.52"><g transform="matrix(1,0,0,1,75.54432,68.26813556575257)"><svg viewBox="0 0 244.43135999999998 110.66372886849484" height="110.66372886849484" width="244.43135999999998"><g><svg viewBox="0 0 244.43135999999998 110.66372886849484" height="110.66372886849484" width="244.43135999999998"><g><svg viewBox="0 0 244.43135999999998 110.66372886849484" height="110.66372886849484" width="244.43135999999998"><g><svg viewBox="0 0 244.43135999999998 110.66372886849484" height="110.66372886849484" width="244.43135999999998"><g><svg viewBox="0 0 244.43135999999998 110.66372886849484" height="110.66372886849484" width="244.43135999999998"><g><svg viewBox="0 0 244.43135999999998 59.68672744186045" height="59.68672744186045" width="244.43135999999998"><g transform="matrix(1,0,0,1,0,0)"><svg width="244.43135999999998" viewBox="1.75 -37.5 154.7899932861328 37.79999923706055" height="59.68672744186045" data-palette-color="#454545"><path d="M1.75 0L26.8 0 26.8-7.7 25.75-7.7 25.75-1.05 6.75-1.05 6.75-17.15 24.15-17.15 24.15-18.15 6.75-18.15 6.75-33.95 25.05-33.95 25.05-27.3 26.1-27.3 26.1-35 1.75-35 1.75-33.95 5.7-33.95 5.7-1.05 1.75-1.05 1.75 0ZM46.2-1.85L46.2-1.85 45.5-2.6Q44.35-1.75 42.97-1.23 41.6-0.7 40.05-0.7L40.05-0.7Q38.2-0.7 36.62-1.38 35.05-2.05 33.9-3.25L33.9-3.25Q32.7-4.4 32.02-5.98 31.35-7.55 31.35-9.4L31.35-9.4Q31.35-11.2 32.02-12.8 32.7-14.4 33.9-15.6L33.9-15.6Q35.05-16.8 36.62-17.45 38.2-18.1 40.05-18.1L40.05-18.1Q41.5-18.1 42.8-17.65 44.1-17.2 45.2-16.4L45.2-16.4 45.2-12.5 46.2-12.5 46.2-17Q44.95-18 43.37-18.57 41.8-19.15 40.05-19.15L40.05-19.15Q37.95-19.15 36.2-18.38 34.45-17.6 33.15-16.3L33.15-16.3Q31.8-15 31.05-13.2 30.3-11.4 30.3-9.4L30.3-9.4Q30.3-7.35 31.05-5.6 31.8-3.85 33.15-2.55L33.15-2.55Q34.45-1.2 36.2-0.45 37.95 0.3 40.05 0.3L40.05 0.3Q41.8 0.3 43.35-0.28 44.9-0.85 46.2-1.85ZM66.45-2.55L66.45-2.55Q67.75-3.85 68.52-5.6 69.3-7.35 69.3-9.4L69.3-9.4Q69.3-11.4 68.52-13.2 67.75-15 66.45-16.35L66.45-16.35Q65.1-17.65 63.3-18.43 61.5-19.2 59.5-19.2L59.5-19.2Q57.4-19.2 55.65-18.43 53.9-17.65 52.6-16.35L52.6-16.35Q51.25-15 50.5-13.2 49.75-11.4 49.75-9.4L49.75-9.4Q49.75-7.35 50.5-5.6 51.25-3.85 52.6-2.55L52.6-2.55Q53.9-1.2 55.65-0.45 57.4 0.3 59.5 0.3L59.5 0.3Q61.5 0.3 63.3-0.45 65.1-1.2 66.45-2.55ZM53.35-3.3L53.35-3.3Q52.15-4.45 51.47-6 50.8-7.55 50.8-9.4L50.8-9.4Q50.8-11.2 51.47-12.78 52.15-14.35 53.35-15.55L53.35-15.55Q54.5-16.75 56.07-17.43 57.65-18.1 59.45-18.1L59.45-18.1Q61.25-18.1 62.85-17.43 64.45-16.75 65.65-15.55L65.65-15.55Q66.85-14.35 67.52-12.78 68.2-11.2 68.2-9.4L68.2-9.4Q68.2-7.55 67.52-6 66.85-4.45 65.65-3.3L65.65-3.3Q64.45-2.05 62.85-1.38 61.25-0.7 59.45-0.7L59.45-0.7Q57.65-0.7 56.07-1.38 54.5-2.05 53.35-3.3ZM72.79 0L81.74 0 81.74-1.05 76.89-1.05 76.89-17.7 83.34-17.7 83.34-18.75 76.89-18.75 76.89-26.05Q76.89-28.45 77.57-30.38 78.24-32.3 79.44-33.65L79.44-33.65Q80.59-35 82.14-35.73 83.69-36.45 85.39-36.5L85.39-36.5 85.39-37.5Q83.39-37.4 81.67-36.63 79.94-35.85 78.64-34.4L78.64-34.4Q77.34-32.95 76.59-30.8 75.84-28.65 75.84-25.9L75.84-25.9 75.84-18.75 72.79-18.75 72.79-17.7 75.84-17.7 75.84-1.05 72.79-1.05 72.79 0ZM103.89-2.55L103.89-2.55Q105.19-3.85 105.97-5.6 106.74-7.35 106.74-9.4L106.74-9.4Q106.74-11.4 105.97-13.2 105.19-15 103.89-16.35L103.89-16.35Q102.54-17.65 100.74-18.43 98.94-19.2 96.94-19.2L96.94-19.2Q94.84-19.2 93.09-18.43 91.34-17.65 90.04-16.35L90.04-16.35Q88.69-15 87.94-13.2 87.19-11.4 87.19-9.4L87.19-9.4Q87.19-7.35 87.94-5.6 88.69-3.85 90.04-2.55L90.04-2.55Q91.34-1.2 93.09-0.45 94.84 0.3 96.94 0.3L96.94 0.3Q98.94 0.3 100.74-0.45 102.54-1.2 103.89-2.55ZM90.79-3.3L90.79-3.3Q89.59-4.45 88.92-6 88.24-7.55 88.24-9.4L88.24-9.4Q88.24-11.2 88.92-12.78 89.59-14.35 90.79-15.55L90.79-15.55Q91.94-16.75 93.52-17.43 95.09-18.1 96.89-18.1L96.89-18.1Q98.69-18.1 100.29-17.43 101.89-16.75 103.09-15.55L103.09-15.55Q104.29-14.35 104.97-12.78 105.64-11.2 105.64-9.4L105.64-9.4Q105.64-7.55 104.97-6 104.29-4.45 103.09-3.3L103.09-3.3Q101.89-2.05 100.29-1.38 98.69-0.7 96.89-0.7L96.89-0.7Q95.09-0.7 93.52-1.38 91.94-2.05 90.79-3.3ZM126.99-2.55L126.99-2.55Q128.29-3.85 129.06-5.6 129.84-7.35 129.84-9.4L129.84-9.4Q129.84-11.4 129.06-13.2 128.29-15 126.99-16.35L126.99-16.35Q125.64-17.65 123.84-18.43 122.04-19.2 120.04-19.2L120.04-19.2Q117.94-19.2 116.19-18.43 114.44-17.65 113.14-16.35L113.14-16.35Q111.79-15 111.04-13.2 110.29-11.4 110.29-9.4L110.29-9.4Q110.29-7.35 111.04-5.6 111.79-3.85 113.14-2.55L113.14-2.55Q114.44-1.2 116.19-0.45 117.94 0.3 120.04 0.3L120.04 0.3Q122.04 0.3 123.84-0.45 125.64-1.2 126.99-2.55ZM113.89-3.3L113.89-3.3Q112.69-4.45 112.01-6 111.34-7.55 111.34-9.4L111.34-9.4Q111.34-11.2 112.01-12.78 112.69-14.35 113.89-15.55L113.89-15.55Q115.04-16.75 116.61-17.43 118.19-18.1 119.99-18.1L119.99-18.1Q121.79-18.1 123.39-17.43 124.99-16.75 126.19-15.55L126.19-15.55Q127.39-14.35 128.06-12.78 128.74-11.2 128.74-9.4L128.74-9.4Q128.74-7.55 128.06-6 127.39-4.45 126.19-3.3L126.19-3.3Q124.99-2.05 123.39-1.38 121.79-0.7 119.99-0.7L119.99-0.7Q118.19-0.7 116.61-1.38 115.04-2.05 113.89-3.3ZM151.84 0L156.54 0 156.54-1.05 152.84-1.05 152.84-37.5 148.19-37.5 148.19-36.45 151.79-36.45 151.79-18.95Q151.79-17.1 151.79-16.18 151.79-15.25 151.84-13.4L151.84-13.4Q151.29-14.6 150.49-15.65 149.69-16.7 148.53-17.5L148.53-17.5Q147.39-18.3 145.99-18.73 144.59-19.15 143.09-19.15L143.09-19.15Q141.03-19.15 139.26-18.38 137.49-17.6 136.19-16.3L136.19-16.3Q134.84-15 134.09-13.2 133.34-11.4 133.34-9.4L133.34-9.4Q133.34-7.35 134.09-5.6 134.84-3.85 136.19-2.55L136.19-2.55Q137.49-1.2 139.26-0.45 141.03 0.3 143.09 0.3L143.09 0.3Q144.64 0.3 146.01-0.13 147.39-0.55 148.59-1.35L148.59-1.35Q149.69-2.15 150.53-3.2 151.39-4.25 151.89-5.45L151.89-5.45Q151.89-4.7 151.86-4 151.84-3.3 151.84-2.55L151.84-2.55 151.84 0ZM143.09-18.1L143.09-18.1Q144.84-18.1 146.44-17.45 148.03-16.8 149.24-15.6L149.24-15.6Q150.44-14.4 151.11-12.8 151.79-11.2 151.79-9.4L151.79-9.4Q151.79-7.55 151.11-5.98 150.44-4.4 149.24-3.25L149.24-3.25Q148.03-2.05 146.44-1.38 144.84-0.7 143.09-0.7L143.09-0.7Q141.24-0.7 139.69-1.38 138.14-2.05 136.94-3.25L136.94-3.25Q135.74-4.4 135.06-5.98 134.39-7.55 134.39-9.4L134.39-9.4Q134.39-11.2 135.06-12.78 135.74-14.35 136.94-15.55L136.94-15.55Q138.09-16.75 139.66-17.43 141.24-18.1 143.09-18.1Z" opacity="1" transform="matrix(1,0,0,1,0,0)" fill="#454545" class="undefined-text-0" data-fill-palette-color="primary" id="text-0"></path></svg></g></svg></g><g transform="matrix(1,0,0,1,0,73.7773313094251)"><svg viewBox="0 0 244.43135999999998 36.886397559069756" height="36.886397559069756" width="244.43135999999998"><g transform="matrix(1,0,0,1,0,0)"><svg width="244.43135999999998" viewBox="2.9000000953674316 -33.650001525878906 226.9600067138672 34.25" height="36.886397559069756" data-palette-color="#454545"><path d="M2.9 0L2.9-26.3 6.6-26.3 7.2-22.7 7.5-22.7Q8.9-26.9 12-26.9L12-26.9Q13.2-26.9 14.1-26.5L14.1-26.5 14.1-21.75 12.5-21.75Q10.35-21.75 8.97-20.3 7.6-18.85 7.6-15.6L7.6-15.6 7.6 0 2.9 0ZM30.95 0.6Q25.9 0.6 23.4-2.7 20.9-6 20.9-13.15L20.9-13.15Q20.9-20.2 23.38-23.55 25.85-26.9 30.85-26.9L30.85-26.9Q35.35-26.9 37.55-23.83 39.75-20.75 39.75-14.1L39.75-14.1 39.75-11.85 25.8-11.85Q25.85-7.55 27.08-5.5 28.3-3.45 31-3.45L31-3.45Q32.85-3.45 33.98-4.95 35.1-6.45 35.1-9.05L35.1-9.05 39.75-9.05Q39.75-4.55 37.33-1.98 34.9 0.6 30.95 0.6L30.95 0.6ZM25.85-15.75L34.85-15.75Q34.85-19.2 33.85-21.03 32.85-22.85 30.85-22.85L30.85-22.85Q28.45-22.85 27.28-21.1 26.1-19.35 25.85-15.75L25.85-15.75ZM56.75 0.6Q52.45 0.6 50.2-1.65 47.95-3.9 47.95-7.3L47.95-7.3Q47.95-7.85 47.98-8.03 48-8.2 48-8.25L48-8.25 52.85-8.25 52.85-7.8Q52.9-5.55 54.03-4.48 55.15-3.4 56.95-3.4L56.95-3.4Q58.55-3.4 59.65-4.33 60.75-5.25 60.75-7L60.75-7Q60.75-8.3 60.08-9.13 59.4-9.95 58.4-10.43 57.4-10.9 55.65-11.5L55.65-11.5Q53.35-12.25 51.93-12.98 50.5-13.7 49.5-15.23 48.5-16.75 48.5-19.25L48.5-19.25Q48.5-22.85 50.85-24.88 53.2-26.9 57.05-26.9L57.05-26.9Q60.7-26.9 62.88-24.88 65.05-22.85 65.05-19.7L65.05-19.7 65-18.7 60.15-18.7 60.15-19.05Q60.15-20.75 59.33-21.83 58.5-22.9 56.75-22.9L56.75-22.9Q54.95-22.9 54.13-21.9 53.3-20.9 53.3-19.6L53.3-19.6Q53.3-18 54.48-17.23 55.65-16.45 58.1-15.7L58.1-15.7Q60.5-14.95 61.98-14.2 63.45-13.45 64.53-11.88 65.6-10.3 65.6-7.65L65.6-7.65Q65.6-3.45 63.2-1.43 60.8 0.6 56.75 0.6L56.75 0.6ZM80.25 0.55Q77.5 0.55 76.3-1.3 75.1-3.15 75.1-5.85L75.1-5.85 75.1-22.2 72.7-22.2 72.7-26.3 75.1-26.3 76-33.65 79.8-33.65 79.8-26.3 83.45-26.3 83.45-22.2 79.8-22.2 79.8-5.8Q79.8-4.7 80.38-4.1 80.95-3.5 82.05-3.5L82.05-3.5 83.45-3.5 83.45-0.15Q82.9 0.15 81.98 0.35 81.05 0.55 80.25 0.55L80.25 0.55ZM96.95 0.6Q94.35 0.6 92.25-1.03 90.15-2.65 90.15-6.8L90.15-6.8Q90.15-11.85 93.58-13.8 97-15.75 103.35-15.75L103.35-15.75 103.35-18.9Q103.35-20.8 102.55-21.83 101.75-22.85 99.65-22.85L99.65-22.85Q97.65-22.85 96.78-21.78 95.9-20.7 95.9-19.15L95.9-19.15 95.9-18.5 91.25-18.5Q91.2-18.8 91.2-19.6L91.2-19.6Q91.2-23.05 93.55-24.98 95.9-26.9 99.8-26.9L99.8-26.9Q103.9-26.9 105.98-24.95 108.05-23 108.05-19.4L108.05-19.4 108.05-5.25Q108.05-4.4 108.45-3.95 108.85-3.5 109.45-3.5L109.45-3.5 110.95-3.5 110.95-0.2Q109.85 0.45 108 0.45L108 0.45Q106.35 0.45 105.2-0.43 104.05-1.3 103.65-2.85L103.65-2.85 103.4-2.85Q101.15 0.6 96.95 0.6L96.95 0.6ZM98.4-3.5Q100.45-3.5 101.9-5.2 103.35-6.9 103.35-9.75L103.35-9.75 103.35-11.85Q99.35-11.85 97.18-10.85 95-9.85 95-7.15L95-7.15Q95-5.2 95.83-4.35 96.65-3.5 98.4-3.5L98.4-3.5ZM125.71 0.6Q119.01 0.6 119.01-7.5L119.01-7.5 119.01-26.3 123.71-26.3 123.71-8.25Q123.71-5.7 124.63-4.65 125.56-3.6 127.36-3.6L127.36-3.6Q129.31-3.6 130.66-5.43 132.01-7.25 132.01-10.15L132.01-10.15 132.01-26.3 136.71-26.3 136.71 0 133.01 0 132.41-3.1 132.11-3.1Q131.06-1.3 129.41-0.35 127.76 0.6 125.71 0.6L125.71 0.6ZM147.06 0L147.06-26.3 150.76-26.3 151.36-22.7 151.66-22.7Q153.06-26.9 156.16-26.9L156.16-26.9Q157.36-26.9 158.26-26.5L158.26-26.5 158.26-21.75 156.66-21.75Q154.51-21.75 153.13-20.3 151.76-18.85 151.76-15.6L151.76-15.6 151.76 0 147.06 0ZM171.31 0.6Q168.71 0.6 166.61-1.03 164.51-2.65 164.51-6.8L164.51-6.8Q164.51-11.85 167.93-13.8 171.36-15.75 177.71-15.75L177.71-15.75 177.71-18.9Q177.71-20.8 176.91-21.83 176.11-22.85 174.01-22.85L174.01-22.85Q172.01-22.85 171.13-21.78 170.26-20.7 170.26-19.15L170.26-19.15 170.26-18.5 165.61-18.5Q165.56-18.8 165.56-19.6L165.56-19.6Q165.56-23.05 167.91-24.98 170.26-26.9 174.16-26.9L174.16-26.9Q178.26-26.9 180.33-24.95 182.41-23 182.41-19.4L182.41-19.4 182.41-5.25Q182.41-4.4 182.81-3.95 183.21-3.5 183.81-3.5L183.81-3.5 185.31-3.5 185.31-0.2Q184.21 0.45 182.36 0.45L182.36 0.45Q180.71 0.45 179.56-0.43 178.41-1.3 178.01-2.85L178.01-2.85 177.76-2.85Q175.51 0.6 171.31 0.6L171.31 0.6ZM172.76-3.5Q174.81-3.5 176.26-5.2 177.71-6.9 177.71-9.75L177.71-9.75 177.71-11.85Q173.71-11.85 171.53-10.85 169.36-9.85 169.36-7.15L169.36-7.15Q169.36-5.2 170.18-4.35 171.01-3.5 172.76-3.5L172.76-3.5ZM193.36 0L193.36-26.3 197.06-26.3 197.66-23.2 197.96-23.2Q199.01-25 200.66-25.95 202.31-26.9 204.41-26.9L204.41-26.9Q211.06-26.9 211.06-18.8L211.06-18.8 211.06 0 206.36 0 206.36-18.05Q206.36-20.6 205.43-21.65 204.51-22.7 202.71-22.7L202.71-22.7Q200.76-22.7 199.41-20.88 198.06-19.05 198.06-16.1L198.06-16.1 198.06 0 193.36 0ZM226.66 0.55Q223.91 0.55 222.71-1.3 221.51-3.15 221.51-5.85L221.51-5.85 221.51-22.2 219.11-22.2 219.11-26.3 221.51-26.3 222.41-33.65 226.21-33.65 226.21-26.3 229.86-26.3 229.86-22.2 226.21-22.2 226.21-5.8Q226.21-4.7 226.79-4.1 227.36-3.5 228.46-3.5L228.46-3.5 229.86-3.5 229.86-0.15Q229.31 0.15 228.39 0.35 227.46 0.55 226.66 0.55L226.66 0.55Z" opacity="1" transform="matrix(1,0,0,1,0,0)" fill="#454545" class="undefined-text-1" data-fill-palette-color="secondary" id="text-1"></path></svg></g></svg></g></svg></g></svg></g></svg></g></svg></g></svg></g><g><path d="M0 123.6c0-68.262 55.338-123.6 123.6-123.6 45.511 0 85.277 24.597 106.729 61.223h-3.132c-21.166-35.077-59.642-58.532-103.597-58.532-66.776 0-120.909 54.133-120.909 120.909 0 66.776 54.133 120.909 120.909 120.909 43.955 0 82.432-23.455 103.597-58.532h3.132c-21.452 36.626-61.218 61.223-106.729 61.223-68.262 0-123.6-55.338-123.6-123.6z" fill="#454545" stroke="transparent" data-fill-palette-color="tertiary"></path></g></svg></g><defs></defs></svg><rect width="395.52" height="247.2" fill="none" stroke="none" visibility="hidden"></rect></g></svg></g></svg>